<?xml version="1.0" encoding="iso-8859-1"?>
<!-- Uploaded to: SVG Repo, www.svgrepo.com, Generator: SVG Repo Mixer Tools -->
<svg height="800px" width="800px" version="1.1" id="Layer_1" xmlns="http://www.w3.org/2000/svg" xmlns:xlink="http://www.w3.org/1999/xlink" 
	 viewBox="0 0 504.869 504.869" xml:space="preserve">
<g>
	<path style="fill:#FFDA44;" d="M322.435,142.468c11.691,0,23.118,1.148,34.184,3.316C340.639,64.211,268.617,2.468,182.435,2.468
		c-97.874,0-177.5,79.626-177.5,177.5c0,32.492,8.744,63.914,25.378,91.497L0,362.401l90.938-30.312
		c17.757,10.709,37.112,18.128,57.314,22.068c-2.168-11.068-3.317-22.496-3.317-34.189
		C144.935,222.094,224.561,142.468,322.435,142.468z"/>
	<path style="fill:#FFCD00;" d="M474.557,411.465c16.634-27.583,25.378-59.005,25.378-91.497
		c0-86.183-61.743-158.205-143.316-174.184c-11.066-2.168-22.492-3.316-34.184-3.316c-97.874,0-177.5,79.626-177.5,177.5
		c0,11.693,1.149,23.122,3.317,34.189c15.982,81.57,88.002,143.31,174.183,143.31c32.494,0,63.916-8.744,91.497-25.378
		l90.938,30.312L474.557,411.465z"/>
</g>
</svg>